<mxfile host="app.diagrams.net" agent="Mozilla/5.0 (Windows NT 10.0; Win64; x64) AppleWebKit/537.36 (KHTML, like Gecko) Chrome/127.0.0.0 Safari/537.36" version="24.7.7">
  <diagram name="Page-1" id="2YBvvXClWsGukQMizWep">
    <mxGraphModel dx="1647" dy="1986" grid="1" gridSize="10" guides="1" tooltips="1" connect="1" arrows="1" fold="1" page="1" pageScale="1" pageWidth="850" pageHeight="1100" math="0" shadow="0">
      <root>
        <mxCell id="0" />
        <mxCell id="1" parent="0" />
        <mxCell id="title1" value="User" style="text;html=1;whiteSpace=wrap;fontStyle=1;" vertex="1" parent="1">
          <mxGeometry x="70" y="400" width="180" height="30" as="geometry" />
        </mxCell>
        <mxCell id="2" value="&lt;span style=&quot;text-align: left; text-wrap: nowrap;&quot;&gt;id : Integer&lt;/span&gt;&lt;br style=&quot;text-align: left; text-wrap: nowrap;&quot;&gt;&lt;span style=&quot;text-align: left; text-wrap: nowrap;&quot;&gt;username : String&lt;/span&gt;&lt;br style=&quot;text-align: left; text-wrap: nowrap;&quot;&gt;&lt;span style=&quot;text-align: left; text-wrap: nowrap;&quot;&gt;password : String&lt;/span&gt;&lt;br style=&quot;text-align: left; text-wrap: nowrap;&quot;&gt;&lt;span style=&quot;text-align: left; text-wrap: nowrap;&quot;&gt;email : String&lt;/span&gt;&lt;br style=&quot;text-align: left; text-wrap: nowrap;&quot;&gt;&lt;span style=&quot;text-align: left; text-wrap: nowrap;&quot;&gt;role : Enum&lt;/span&gt;&lt;br style=&quot;text-align: left; text-wrap: nowrap;&quot;&gt;&lt;span style=&quot;text-align: left; text-wrap: nowrap;&quot;&gt;first_name : String&lt;/span&gt;&lt;br style=&quot;text-align: left; text-wrap: nowrap;&quot;&gt;&lt;span style=&quot;text-align: left; text-wrap: nowrap;&quot;&gt;last_name : String&lt;/span&gt;&lt;br style=&quot;text-align: left; text-wrap: nowrap;&quot;&gt;&lt;span style=&quot;text-align: left; text-wrap: nowrap;&quot;&gt;phone : String&lt;/span&gt;&lt;br style=&quot;text-align: left; text-wrap: nowrap;&quot;&gt;&lt;span style=&quot;text-align: left; text-wrap: nowrap;&quot;&gt;address : String&lt;/span&gt;&lt;br style=&quot;text-align: left; text-wrap: nowrap;&quot;&gt;&lt;span style=&quot;text-align: left; text-wrap: nowrap;&quot;&gt;postal_code : String&lt;/span&gt;&lt;br style=&quot;text-align: left; text-wrap: nowrap;&quot;&gt;&lt;span style=&quot;text-align: left; text-wrap: nowrap;&quot;&gt;birth_date : Date&lt;/span&gt;&lt;br style=&quot;text-align: left; text-wrap: nowrap;&quot;&gt;&lt;span style=&quot;text-align: left; text-wrap: nowrap;&quot;&gt;is_premium : Boolean&lt;/span&gt;&lt;br style=&quot;text-align: left; text-wrap: nowrap;&quot;&gt;&lt;span style=&quot;text-align: left; text-wrap: nowrap;&quot;&gt;image : String&lt;/span&gt;" style="rounded=1;whiteSpace=wrap;html=1;" vertex="1" parent="1">
          <mxGeometry x="60" y="440" width="180" height="240" as="geometry" />
        </mxCell>
        <mxCell id="title2" value="Location" style="text;html=1;whiteSpace=wrap;fontStyle=1;" vertex="1" parent="1">
          <mxGeometry x="920" y="-40" width="180" height="30" as="geometry" />
        </mxCell>
        <mxCell id="4" value="&lt;span style=&quot;text-align: left; text-wrap: nowrap;&quot;&gt;id : Integer&lt;/span&gt;&lt;br style=&quot;text-align: left; text-wrap: nowrap;&quot;&gt;&lt;span style=&quot;text-align: left; text-wrap: nowrap;&quot;&gt;name : String&lt;/span&gt;&lt;br style=&quot;text-align: left; text-wrap: nowrap;&quot;&gt;&lt;span style=&quot;text-align: left; text-wrap: nowrap;&quot;&gt;address : String&lt;/span&gt;&lt;br style=&quot;text-align: left; text-wrap: nowrap;&quot;&gt;&lt;span style=&quot;text-align: left; text-wrap: nowrap;&quot;&gt;city : String&lt;/span&gt;&lt;br style=&quot;text-align: left; text-wrap: nowrap;&quot;&gt;&lt;span style=&quot;text-align: left; text-wrap: nowrap;&quot;&gt;state : Boolean&lt;/span&gt;&lt;br style=&quot;text-align: left; text-wrap: nowrap;&quot;&gt;&lt;span style=&quot;text-align: left; text-wrap: nowrap;&quot;&gt;postal_code : Integer&lt;/span&gt;" style="rounded=1;whiteSpace=wrap;html=1;" vertex="1" parent="1">
          <mxGeometry x="910" y="5" width="180" height="100" as="geometry" />
        </mxCell>
        <mxCell id="title3" value="Workout" style="text;html=1;whiteSpace=wrap;fontStyle=1;" vertex="1" parent="1">
          <mxGeometry x="340" y="-50" width="180" height="30" as="geometry" />
        </mxCell>
        <mxCell id="6" value="&lt;span style=&quot;text-align: left; text-wrap: nowrap;&quot;&gt;id : Integer&lt;/span&gt;&lt;br style=&quot;text-align: left; text-wrap: nowrap;&quot;&gt;&lt;span style=&quot;text-align: left; text-wrap: nowrap;&quot;&gt;title : String&lt;/span&gt;&lt;br style=&quot;text-align: left; text-wrap: nowrap;&quot;&gt;&lt;span style=&quot;text-align: left; text-wrap: nowrap;&quot;&gt;description : String&lt;/span&gt;&lt;br style=&quot;text-align: left; text-wrap: nowrap;&quot;&gt;&lt;span style=&quot;text-align: left; text-wrap: nowrap;&quot;&gt;duration : Duration&lt;/span&gt;&lt;br style=&quot;text-align: left; text-wrap: nowrap;&quot;&gt;&lt;span style=&quot;text-align: left; text-wrap: nowrap;&quot;&gt;available : Boolean&lt;/span&gt;&lt;br style=&quot;text-align: left; text-wrap: nowrap;&quot;&gt;&lt;span style=&quot;text-align: left; text-wrap: nowrap;&quot;&gt;created_at : DateTime&lt;/span&gt;&lt;br style=&quot;text-align: left; text-wrap: nowrap;&quot;&gt;&lt;span style=&quot;text-align: left; text-wrap: nowrap;&quot;&gt;location : Location&lt;/span&gt;&lt;br style=&quot;text-align: left; text-wrap: nowrap;&quot;&gt;&lt;span style=&quot;text-align: left; text-wrap: nowrap;&quot;&gt;coaches : List&lt;/span&gt;" style="rounded=1;whiteSpace=wrap;html=1;" vertex="1" parent="1">
          <mxGeometry x="280" y="-20" width="180" height="240" as="geometry" />
        </mxCell>
        <mxCell id="title4" value="WorkoutImage" style="text;html=1;whiteSpace=wrap;fontStyle=1;" vertex="1" parent="1">
          <mxGeometry x="680" y="-40" width="180" height="30" as="geometry" />
        </mxCell>
        <mxCell id="8" value="&lt;span style=&quot;text-align: left; text-wrap: nowrap;&quot;&gt;id : Integer&lt;/span&gt;&lt;br style=&quot;text-align: left; text-wrap: nowrap;&quot;&gt;&lt;span style=&quot;text-align: left; text-wrap: nowrap;&quot;&gt;workout : Workout&lt;/span&gt;&lt;br style=&quot;text-align: left; text-wrap: nowrap;&quot;&gt;&lt;span style=&quot;text-align: left; text-wrap: nowrap;&quot;&gt;image : String&lt;/span&gt;&lt;br style=&quot;text-align: left; text-wrap: nowrap;&quot;&gt;&lt;span style=&quot;text-wrap: nowrap;&quot;&gt;description : String&lt;/span&gt;" style="rounded=1;whiteSpace=wrap;html=1;" vertex="1" parent="1">
          <mxGeometry x="660" y="-5" width="180" height="120" as="geometry" />
        </mxCell>
        <mxCell id="title5" value="WorkoutSchedule" style="text;html=1;whiteSpace=wrap;fontStyle=1;" vertex="1" parent="1">
          <mxGeometry x="830" y="150" width="180" height="30" as="geometry" />
        </mxCell>
        <mxCell id="10" value="&lt;span style=&quot;text-align: left; text-wrap: nowrap;&quot;&gt;id : Integer&lt;/span&gt;&lt;br style=&quot;text-align: left; text-wrap: nowrap;&quot;&gt;&lt;span style=&quot;text-align: left; text-wrap: nowrap;&quot;&gt;workout : Workout&lt;/span&gt;&lt;br style=&quot;text-align: left; text-wrap: nowrap;&quot;&gt;&lt;span style=&quot;text-align: left; text-wrap: nowrap;&quot;&gt;start_time : DateTime&lt;/span&gt;&lt;br style=&quot;text-align: left; text-wrap: nowrap;&quot;&gt;&lt;span style=&quot;text-align: left; text-wrap: nowrap;&quot;&gt;end_time : DateTime&lt;/span&gt;&lt;br style=&quot;text-align: left; text-wrap: nowrap;&quot;&gt;&lt;span style=&quot;text-align: left; text-wrap: nowrap;&quot;&gt;location : Location&lt;/span&gt;&lt;br style=&quot;text-align: left; text-wrap: nowrap;&quot;&gt;&lt;span style=&quot;text-align: left; text-wrap: nowrap;&quot;&gt;coach : Coach&lt;/span&gt;" style="rounded=1;whiteSpace=wrap;html=1;" vertex="1" parent="1">
          <mxGeometry x="940" y="140" width="180" height="180" as="geometry" />
        </mxCell>
        <mxCell id="title6" value="Booking" style="text;html=1;whiteSpace=wrap;fontStyle=1;" vertex="1" parent="1">
          <mxGeometry x="630" y="190" width="180" height="30" as="geometry" />
        </mxCell>
        <mxCell id="12" value="&lt;span style=&quot;text-align: left; text-wrap: nowrap;&quot;&gt;id : Integer&lt;/span&gt;&lt;br style=&quot;text-align: left; text-wrap: nowrap;&quot;&gt;&lt;span style=&quot;text-align: left; text-wrap: nowrap;&quot;&gt;schedule : WorkoutSchedule&lt;/span&gt;&lt;br style=&quot;text-align: left; text-wrap: nowrap;&quot;&gt;&lt;span style=&quot;text-align: left; text-wrap: nowrap;&quot;&gt;participants : List&lt;/span&gt;&lt;br style=&quot;text-align: left; text-wrap: nowrap;&quot;&gt;&lt;span style=&quot;text-align: left; text-wrap: nowrap;&quot;&gt;coach : Coach&lt;/span&gt;&lt;br style=&quot;text-align: left; text-wrap: nowrap;&quot;&gt;&lt;span style=&quot;text-align: left; text-wrap: nowrap;&quot;&gt;location : Location&lt;/span&gt;&lt;br style=&quot;text-align: left; text-wrap: nowrap;&quot;&gt;&lt;span style=&quot;text-align: left; text-wrap: nowrap;&quot;&gt;date_time : DateTime&lt;/span&gt;&lt;br style=&quot;text-align: left; text-wrap: nowrap;&quot;&gt;&lt;span style=&quot;text-align: left; text-wrap: nowrap;&quot;&gt;available : Boolean&lt;/span&gt;&lt;br style=&quot;text-align: left; text-wrap: nowrap;&quot;&gt;&lt;span style=&quot;text-align: left; text-wrap: nowrap;&quot;&gt;expired : Boolean&lt;/span&gt;" style="rounded=1;whiteSpace=wrap;html=1;" vertex="1" parent="1">
          <mxGeometry x="940" y="480" width="180" height="240" as="geometry" />
        </mxCell>
        <mxCell id="title7" value="Coach" style="text;html=1;whiteSpace=wrap;fontStyle=1;" vertex="1" parent="1">
          <mxGeometry x="1060" y="440" width="180" height="30" as="geometry" />
        </mxCell>
        <mxCell id="14" value="&lt;span style=&quot;text-align: left; text-wrap: nowrap;&quot;&gt;id : Integer&lt;/span&gt;&lt;br style=&quot;text-align: left; text-wrap: nowrap;&quot;&gt;&lt;span style=&quot;text-align: left; text-wrap: nowrap;&quot;&gt;username : String&lt;/span&gt;&lt;br style=&quot;text-align: left; text-wrap: nowrap;&quot;&gt;&lt;span style=&quot;text-align: left; text-wrap: nowrap;&quot;&gt;user : User&lt;/span&gt;&lt;br style=&quot;text-align: left; text-wrap: nowrap;&quot;&gt;&lt;span style=&quot;text-align: left; text-wrap: nowrap;&quot;&gt;specialties : List&lt;/span&gt;&lt;br style=&quot;text-align: left; text-wrap: nowrap;&quot;&gt;&lt;span style=&quot;text-align: left; text-wrap: nowrap;&quot;&gt;available : Boolean&lt;/span&gt;&lt;br style=&quot;text-align: left; text-wrap: nowrap;&quot;&gt;&lt;span style=&quot;text-align: left; text-wrap: nowrap;&quot;&gt;experience : Integer&lt;/span&gt;" style="rounded=1;whiteSpace=wrap;html=1;" vertex="1" parent="1">
          <mxGeometry x="540" y="230" width="180" height="180" as="geometry" />
        </mxCell>
        <mxCell id="title8" value="Plan" style="text;html=1;whiteSpace=wrap;fontStyle=1;" vertex="1" parent="1">
          <mxGeometry x="690" y="650" width="180" height="30" as="geometry" />
        </mxCell>
        <mxCell id="16" value="&lt;span style=&quot;text-align: left; text-wrap: nowrap;&quot;&gt;id : Integer&lt;/span&gt;&lt;br style=&quot;text-align: left; text-wrap: nowrap;&quot;&gt;&lt;span style=&quot;text-align: left; text-wrap: nowrap;&quot;&gt;name : String&lt;/span&gt;&lt;br style=&quot;text-align: left; text-wrap: nowrap;&quot;&gt;&lt;span style=&quot;text-align: left; text-wrap: nowrap;&quot;&gt;description : String&lt;/span&gt;&lt;br style=&quot;text-align: left; text-wrap: nowrap;&quot;&gt;&lt;span style=&quot;text-align: left; text-wrap: nowrap;&quot;&gt;price : Integer&lt;/span&gt;&lt;br style=&quot;text-align: left; text-wrap: nowrap;&quot;&gt;&lt;span style=&quot;text-align: left; text-wrap: nowrap;&quot;&gt;duration : Integer&lt;/span&gt;&lt;br style=&quot;text-align: left; text-wrap: nowrap;&quot;&gt;&lt;span style=&quot;text-align: left; text-wrap: nowrap;&quot;&gt;image : String&lt;/span&gt;&lt;br style=&quot;text-align: left; text-wrap: nowrap;&quot;&gt;&lt;span style=&quot;text-align: left; text-wrap: nowrap;&quot;&gt;is_available : Boolean&lt;/span&gt;&lt;br style=&quot;text-align: left; text-wrap: nowrap;&quot;&gt;&lt;span style=&quot;text-align: left; text-wrap: nowrap;&quot;&gt;is_premium : Boolean&lt;/span&gt;" style="rounded=1;whiteSpace=wrap;html=1;" vertex="1" parent="1">
          <mxGeometry x="690" y="680" width="180" height="160" as="geometry" />
        </mxCell>
        <mxCell id="title9" value="Subscription" style="text;html=1;whiteSpace=wrap;fontStyle=1;" vertex="1" parent="1">
          <mxGeometry x="690" y="480" width="180" height="30" as="geometry" />
        </mxCell>
        <mxCell id="18" value="&lt;span style=&quot;text-align: left; text-wrap: nowrap;&quot;&gt;id : Integer&lt;/span&gt;&lt;br style=&quot;text-align: left; text-wrap: nowrap;&quot;&gt;&lt;span style=&quot;text-align: left; text-wrap: nowrap;&quot;&gt;user : User&lt;/span&gt;&lt;br style=&quot;text-align: left; text-wrap: nowrap;&quot;&gt;&lt;span style=&quot;text-align: left; text-wrap: nowrap;&quot;&gt;plan : Plan&lt;/span&gt;&lt;br style=&quot;text-align: left; text-wrap: nowrap;&quot;&gt;&lt;span style=&quot;text-align: left; text-wrap: nowrap;&quot;&gt;start_date : Date&lt;/span&gt;&lt;br style=&quot;text-align: left; text-wrap: nowrap;&quot;&gt;&lt;span style=&quot;text-align: left; text-wrap: nowrap;&quot;&gt;payment_status : String&lt;/span&gt;" style="rounded=1;whiteSpace=wrap;html=1;" vertex="1" parent="1">
          <mxGeometry x="690" y="510" width="180" height="120" as="geometry" />
        </mxCell>
        <mxCell id="title10" value="Review" style="text;html=1;whiteSpace=wrap;fontStyle=1;" vertex="1" parent="1">
          <mxGeometry x="280" y="270" width="180" height="30" as="geometry" />
        </mxCell>
        <mxCell id="20" value="&lt;span style=&quot;text-align: left; text-wrap: nowrap;&quot;&gt;id : Integer&lt;/span&gt;&lt;br style=&quot;text-align: left; text-wrap: nowrap;&quot;&gt;&lt;span style=&quot;text-align: left; text-wrap: nowrap;&quot;&gt;user : User&lt;/span&gt;&lt;br style=&quot;text-align: left; text-wrap: nowrap;&quot;&gt;&lt;span style=&quot;text-align: left; text-wrap: nowrap;&quot;&gt;workout : Workout&lt;/span&gt;&lt;br style=&quot;text-align: left; text-wrap: nowrap;&quot;&gt;&lt;span style=&quot;text-align: left; text-wrap: nowrap;&quot;&gt;content : String&lt;/span&gt;&lt;br style=&quot;text-align: left; text-wrap: nowrap;&quot;&gt;&lt;span style=&quot;text-align: left; text-wrap: nowrap;&quot;&gt;date_time : DateTime&lt;/span&gt;" style="rounded=1;whiteSpace=wrap;html=1;" vertex="1" parent="1">
          <mxGeometry x="280" y="300" width="180" height="120" as="geometry" />
        </mxCell>
        <mxCell id="title11" value="Role (Enum)" style="text;html=1;whiteSpace=wrap;fontStyle=1;" vertex="1" parent="1">
          <mxGeometry x="60" y="40" width="180" height="30" as="geometry" />
        </mxCell>
        <mxCell id="22" value="&lt;span style=&quot;text-align: left; text-wrap: nowrap;&quot;&gt;User&lt;/span&gt;&lt;br style=&quot;text-align: left; text-wrap: nowrap;&quot;&gt;&lt;span style=&quot;text-align: left; text-wrap: nowrap;&quot;&gt;Employee&lt;/span&gt;&lt;br style=&quot;text-align: left; text-wrap: nowrap;&quot;&gt;&lt;span style=&quot;text-align: left; text-wrap: nowrap;&quot;&gt;Admin&lt;/span&gt;" style="rounded=1;whiteSpace=wrap;html=1;" vertex="1" parent="1">
          <mxGeometry x="60" y="70" width="180" height="80" as="geometry" />
        </mxCell>
        <mxCell id="24" value="" style="edgeStyle=orthogonalEdgeStyle;rounded=1;html=1;" edge="1" parent="1" source="2" target="12">
          <mxGeometry relative="1" as="geometry">
            <Array as="points">
              <mxPoint x="1010" y="470" />
            </Array>
          </mxGeometry>
          <mxPoint as="sourcePoint" />
          <mxPoint as="targetPoint" />
        </mxCell>
        <mxCell id="35" value="1" style="text;html=1;whiteSpace=wrap;" vertex="1" parent="24">
          <mxGeometry y="0.5" relative="1" as="geometry" />
        </mxCell>
        <mxCell id="36" value="0..*" style="text;html=1;whiteSpace=wrap;" vertex="1" parent="24">
          <mxGeometry x="1" y="0.5" relative="1" as="geometry" />
        </mxCell>
        <mxCell id="25" value="" style="edgeStyle=orthogonalEdgeStyle;rounded=1;html=1;" edge="1" parent="1" source="12" target="10">
          <mxGeometry relative="1" as="geometry" />
          <mxPoint as="sourcePoint" />
          <mxPoint as="targetPoint" />
        </mxCell>
        <mxCell id="37" value="1" style="text;html=1;whiteSpace=wrap;" vertex="1" parent="25">
          <mxGeometry y="0.5" relative="1" as="geometry" />
        </mxCell>
        <mxCell id="38" value="0..*" style="text;html=1;whiteSpace=wrap;" vertex="1" parent="25">
          <mxGeometry x="1" y="0.5" relative="1" as="geometry" />
        </mxCell>
        <mxCell id="26" value="" style="edgeStyle=orthogonalEdgeStyle;rounded=1;html=1;entryX=1;entryY=0.75;entryDx=0;entryDy=0;" edge="1" parent="1" source="10" target="6">
          <mxGeometry relative="1" as="geometry">
            <mxPoint x="470" y="160" as="targetPoint" />
          </mxGeometry>
          <mxPoint as="sourcePoint" />
          <mxPoint as="targetPoint" />
        </mxCell>
        <mxCell id="39" value="1" style="text;html=1;whiteSpace=wrap;" vertex="1" parent="26">
          <mxGeometry y="0.5" relative="1" as="geometry" />
        </mxCell>
        <mxCell id="40" value="0..*" style="text;html=1;whiteSpace=wrap;" vertex="1" parent="26">
          <mxGeometry x="1" y="0.5" relative="1" as="geometry" />
        </mxCell>
        <mxCell id="Jt2ypTQlM_ihQy3oePk0-57" style="edgeStyle=orthogonalEdgeStyle;rounded=0;orthogonalLoop=1;jettySize=auto;html=1;exitX=0;exitY=0;exitDx=0;exitDy=0;" edge="1" parent="26" source="40" target="40">
          <mxGeometry relative="1" as="geometry" />
        </mxCell>
        <mxCell id="27" value="" style="edgeStyle=orthogonalEdgeStyle;rounded=1;html=1;exitX=0.999;exitY=0.314;exitDx=0;exitDy=0;exitPerimeter=0;" edge="1" parent="1" source="6" target="8">
          <mxGeometry relative="1" as="geometry" />
          <mxPoint as="sourcePoint" />
          <mxPoint as="targetPoint" />
        </mxCell>
        <mxCell id="41" value="1" style="text;html=1;whiteSpace=wrap;" vertex="1" parent="27">
          <mxGeometry y="0.5" relative="1" as="geometry" />
        </mxCell>
        <mxCell id="42" value="0..*" style="text;html=1;whiteSpace=wrap;" vertex="1" parent="27">
          <mxGeometry x="1" y="0.5" relative="1" as="geometry" />
        </mxCell>
        <mxCell id="28" value="" style="edgeStyle=orthogonalEdgeStyle;rounded=1;html=1;exitX=1;exitY=0.75;exitDx=0;exitDy=0;" edge="1" parent="1" source="6" target="14">
          <mxGeometry relative="1" as="geometry">
            <mxPoint x="470" y="160" as="sourcePoint" />
            <Array as="points">
              <mxPoint x="490" y="160" />
              <mxPoint x="490" y="310" />
            </Array>
          </mxGeometry>
          <mxPoint as="sourcePoint" />
          <mxPoint as="targetPoint" />
        </mxCell>
        <mxCell id="43" value="0..*" style="text;html=1;whiteSpace=wrap;" vertex="1" parent="28">
          <mxGeometry y="0.5" relative="1" as="geometry" />
        </mxCell>
        <mxCell id="44" value="0..*" style="text;html=1;whiteSpace=wrap;" vertex="1" parent="28">
          <mxGeometry x="1" y="0.5" relative="1" as="geometry" />
        </mxCell>
        <mxCell id="29" value="" style="edgeStyle=orthogonalEdgeStyle;rounded=1;html=1;" edge="1" parent="1" target="10">
          <mxGeometry relative="1" as="geometry">
            <mxPoint x="720" y="310" as="sourcePoint" />
            <Array as="points">
              <mxPoint x="720" y="310" />
              <mxPoint x="870" y="310" />
              <mxPoint x="870" y="230" />
            </Array>
          </mxGeometry>
          <mxPoint as="sourcePoint" />
          <mxPoint as="targetPoint" />
        </mxCell>
        <mxCell id="45" value="1" style="text;html=1;whiteSpace=wrap;" vertex="1" parent="29">
          <mxGeometry y="0.5" relative="1" as="geometry" />
        </mxCell>
        <mxCell id="46" value="0..*" style="text;html=1;whiteSpace=wrap;" vertex="1" parent="29">
          <mxGeometry x="1" y="0.5" relative="1" as="geometry" />
        </mxCell>
        <mxCell id="30" value="" style="edgeStyle=orthogonalEdgeStyle;rounded=1;html=1;entryX=0.999;entryY=0.546;entryDx=0;entryDy=0;entryPerimeter=0;" edge="1" parent="1" source="18" target="2">
          <mxGeometry relative="1" as="geometry" />
          <mxPoint as="sourcePoint" />
          <mxPoint as="targetPoint" />
        </mxCell>
        <mxCell id="47" value="1" style="text;html=1;whiteSpace=wrap;" vertex="1" parent="30">
          <mxGeometry y="0.5" relative="1" as="geometry" />
        </mxCell>
        <mxCell id="48" value="0..1" style="text;html=1;whiteSpace=wrap;" vertex="1" parent="30">
          <mxGeometry x="1" y="0.5" relative="1" as="geometry" />
        </mxCell>
        <mxCell id="31" value="" style="edgeStyle=orthogonalEdgeStyle;rounded=1;html=1;entryX=0.5;entryY=0;entryDx=0;entryDy=0;" edge="1" parent="1" source="18" target="16">
          <mxGeometry relative="1" as="geometry" />
          <mxPoint as="sourcePoint" />
          <mxPoint as="targetPoint" />
        </mxCell>
        <mxCell id="49" value="1" style="text;html=1;whiteSpace=wrap;" vertex="1" parent="31">
          <mxGeometry y="0.5" relative="1" as="geometry" />
        </mxCell>
        <mxCell id="50" value="0..1" style="text;html=1;whiteSpace=wrap;" vertex="1" parent="31">
          <mxGeometry x="1" y="0.5" relative="1" as="geometry" />
        </mxCell>
        <mxCell id="32" value="" style="edgeStyle=orthogonalEdgeStyle;rounded=1;html=1;" edge="1" parent="1" source="20" target="2">
          <mxGeometry relative="1" as="geometry" />
          <mxPoint as="sourcePoint" />
          <mxPoint as="targetPoint" />
        </mxCell>
        <mxCell id="51" value="1" style="text;html=1;whiteSpace=wrap;" vertex="1" parent="32">
          <mxGeometry y="0.5" relative="1" as="geometry" />
        </mxCell>
        <mxCell id="52" value="0..*" style="text;html=1;whiteSpace=wrap;" vertex="1" parent="32">
          <mxGeometry x="1" y="0.5" relative="1" as="geometry" />
        </mxCell>
        <mxCell id="33" value="" style="edgeStyle=orthogonalEdgeStyle;rounded=1;html=1;" edge="1" parent="1" source="20" target="6">
          <mxGeometry relative="1" as="geometry" />
          <mxPoint as="sourcePoint" />
          <mxPoint as="targetPoint" />
        </mxCell>
        <mxCell id="53" value="1" style="text;html=1;whiteSpace=wrap;" vertex="1" parent="33">
          <mxGeometry y="0.5" relative="1" as="geometry" />
        </mxCell>
        <mxCell id="54" value="0..*" style="text;html=1;whiteSpace=wrap;" vertex="1" parent="33">
          <mxGeometry x="1" y="0.5" relative="1" as="geometry" />
        </mxCell>
        <mxCell id="34" value="" style="edgeStyle=orthogonalEdgeStyle;rounded=1;html=1;" edge="1" parent="1" source="2" target="22">
          <mxGeometry relative="1" as="geometry" />
          <mxPoint as="sourcePoint" />
          <mxPoint as="targetPoint" />
        </mxCell>
        <mxCell id="55" value="1" style="text;html=1;whiteSpace=wrap;" vertex="1" parent="34">
          <mxGeometry y="0.5" relative="1" as="geometry" />
        </mxCell>
        <mxCell id="56" value="1" style="text;html=1;whiteSpace=wrap;" vertex="1" parent="34">
          <mxGeometry x="1" y="0.5" relative="1" as="geometry" />
        </mxCell>
      </root>
    </mxGraphModel>
  </diagram>
</mxfile>
